<svg xmlns="http://www.w3.org/2000/svg" width="128" height="128" viewBox="-4.5 -5 22 22" shape-rendering="crispEdges">
  <rect fill="#abbda9" stroke="#1a2c16" paint-order="stroke" stroke-width="2" x="-3.5" y="-4" width="20" height="20" />
  <path stroke="#1a2c16" d="M4 0h5M2 1h2M8 1h3M1 2h2M7 2h5M1 3h2M7 3h5M0 4h1M3 4h2M6 4h1M8 4h2M11 4h1M0 5h1M2 5h4M10 5h1M12 5h1M0 6h6M10 6h1M12 6h1M0 7h1M2 7h4M10 7h1M12 7h1M0 8h1M3 8h2M6 8h1M8 8h2M11 8h2M1 9h2M7 9h5M1 10h2M7 10h5M2 11h2M8 11h3M4 12h5" />
</svg>